<svg width="20" height="21" viewBox="0 0 20 21" fill="none" xmlns="http://www.w3.org/2000/svg">
<path fill-rule="evenodd" clip-rule="evenodd" d="M10.0003 18C8.58617 17.9964 7.20226 17.5899 6.01014 16.8278L2.5 18L3.67009 14.4824C2.78856 13.0731 2.39958 11.4101 2.56446 9.75516C2.72933 8.10018 3.43871 6.54706 4.58089 5.34005C5.72307 4.13304 7.23322 3.34063 8.87402 3.08743C10.5148 2.83423 12.1932 3.1346 13.645 3.94132C15.0967 4.74805 16.2396 6.01532 16.894 7.54388C17.5483 9.07244 17.6769 10.7756 17.2596 12.3854C16.8423 13.9952 15.9027 15.4203 14.5886 16.4366C13.2745 17.453 11.6604 18.003 10.0003 18ZM11.6304 11.6241C12.1292 11.7857 12.6367 11.9195 13.1504 12.0248C13.2045 12.0328 13.2563 12.0516 13.3029 12.0801C13.3495 12.1086 13.3899 12.1463 13.4217 12.1908C13.4534 12.2353 13.4759 12.2858 13.4877 12.3393C13.4995 12.3927 13.5004 12.448 13.4904 12.5017V12.7902C13.4954 12.8932 13.4763 12.996 13.4346 13.0902C13.393 13.1845 13.3298 13.2677 13.2504 13.3333C13.0039 13.5839 12.7121 13.7852 12.3904 13.9264C11.9158 13.9829 11.4347 13.941 10.977 13.8031C10.5194 13.6652 10.095 13.4343 9.73025 13.1249C9.26004 12.8089 8.82139 12.4482 8.42027 12.0479C8.02104 11.644 7.65944 11.2043 7.34015 10.7344C7.03376 10.3688 6.80561 9.94407 6.66971 9.48653C6.53382 9.02899 6.49316 8.5484 6.5502 8.07447C6.69134 7.754 6.89147 7.46303 7.14019 7.21685C7.20356 7.13565 7.28604 7.0715 7.38031 7.03022C7.47459 6.98894 7.57772 6.97181 7.68025 6.98038H7.97018C8.07956 6.96525 8.19055 6.99418 8.27866 7.06086C8.36677 7.12753 8.42479 7.22654 8.44017 7.33609C8.59017 7.9292 8.70021 8.358 8.85022 8.8389C8.91022 9.03927 8.84029 9.08734 8.68029 9.20757C8.58028 9.28471 8.50027 9.34083 8.42027 9.39994C8.37387 9.42017 8.33224 9.44993 8.29807 9.48732C8.2639 9.52472 8.23793 9.56888 8.2219 9.61696C8.20587 9.66505 8.20005 9.71601 8.20493 9.76647C8.20981 9.81693 8.22527 9.86576 8.25022 9.90987C8.50561 10.4023 8.83249 10.8541 9.22023 11.2504C9.61525 11.6396 10.0672 11.9662 10.5604 12.2192C10.6045 12.2437 10.6532 12.2589 10.7034 12.2636C10.7537 12.2683 10.8044 12.2625 10.8524 12.2466C10.9003 12.2307 10.9445 12.205 10.982 12.1712C11.0195 12.1373 11.0495 12.096 11.0703 12.0499C11.1303 11.9687 11.1803 11.8926 11.2603 11.7884C11.2728 11.7524 11.2924 11.7192 11.318 11.691C11.3435 11.6627 11.3745 11.6399 11.409 11.6239C11.4436 11.608 11.481 11.5991 11.519 11.5979C11.557 11.5967 11.5949 11.6033 11.6304 11.6171V11.6241Z" fill="#FBFBFD"/>
</svg>
