<svg width="20" height="21" viewBox="0 0 20 21" fill="none" xmlns="http://www.w3.org/2000/svg">
<path fill-rule="evenodd" clip-rule="evenodd" d="M14.9849 15.5426C14.9664 15.7403 14.8889 15.9281 14.7623 16.0816C14.6358 16.2351 14.466 16.3474 14.2747 16.4038C14.0835 16.4603 13.8797 16.4584 13.6895 16.3985C13.4993 16.3386 13.3315 16.2233 13.2077 16.0675C12.1195 15.2066 10.4223 13.9658 10.4223 13.9658C10.4223 13.9658 9.19427 16.1202 8.97463 16.3409C8.90207 16.4016 8.81761 16.4466 8.72662 16.473C8.63563 16.4993 8.54013 16.5065 8.44619 16.4941C8.35225 16.4816 8.26191 16.4498 8.181 16.4007C8.10009 16.3516 8.03037 16.2862 7.97625 16.2087C7.96505 16.1748 7.95179 16.1415 7.9364 16.1092L8.62522 12.6774L13.5373 7.87265L6.83809 11.6793C6.83809 11.6793 3.81304 10.7786 3.36377 10.6026C3.24787 10.5396 3.1523 10.4451 3.08809 10.3302C3.02389 10.2153 2.99376 10.0846 3.00107 9.95333C3.00839 9.82203 3.05283 9.69548 3.12941 9.58834C3.20598 9.48121 3.31153 9.39788 3.43372 9.34799C4.07268 9.0239 15.3443 4.73705 15.7237 4.6267C16.103 4.51635 17.1014 4.22904 16.9916 5.19635C16.8818 6.16367 15.0947 15.0107 14.9849 15.5426Z" fill="#FBFBFD"/>
</svg>
