<svg width="20" height="21" viewBox="0 0 20 21" fill="none" xmlns="http://www.w3.org/2000/svg">
<path fill-rule="evenodd" clip-rule="evenodd" d="M11.4513 6.7795V10.0322C11.4477 10.086 11.4569 10.1398 11.4782 10.1892C11.4995 10.2386 11.5323 10.2822 11.5738 10.3164C11.6152 10.3505 11.6642 10.3743 11.7167 10.3857C11.7692 10.3971 11.8235 10.3958 11.8754 10.3818C12.1741 10.3619 12.8492 7.58543 13.1489 6.9862C13.3081 6.64482 13.5636 6.35772 13.8837 6.16031C13.9848 6.06908 14.1135 6.01453 14.2491 6.00548H17.1147C17.1921 6.01854 17.2648 6.05115 17.3261 6.10021C17.3875 6.14927 17.4353 6.21315 17.4651 6.28588C17.495 6.35861 17.506 6.43779 17.4969 6.51593C17.4879 6.59407 17.4591 6.66864 17.4134 6.73257C17.1894 7.23192 15.2677 10.3379 15.1681 10.4637C15.0483 10.6261 14.9675 10.8141 14.9321 11.013C14.9715 11.2477 15.0797 11.4654 15.2428 11.6382C15.442 11.8649 17.051 13.6416 17.2013 13.7904C17.3429 13.9541 17.4375 14.1533 17.4752 14.3667C17.4393 14.5484 17.3386 14.7108 17.192 14.8235C17.0454 14.9361 16.8629 14.9914 16.6786 14.9788C16.0553 14.9788 14.5219 14.9788 14.3467 14.9788C13.9964 14.8559 13.6742 14.6641 13.3988 14.4146C13.1748 14.2148 12.3443 13.2641 12.2199 13.1392C12.1778 13.0884 12.1239 13.0487 12.063 13.0234C12.0021 12.9982 11.936 12.9882 11.8704 12.9944C11.721 12.9944 11.4373 13.0094 11.4502 13.5777C11.4856 13.9724 11.4031 14.3686 11.2133 14.7162C11.116 14.8097 11.0008 14.8823 10.8746 14.9295C10.7485 14.9768 10.614 14.9976 10.4794 14.9909C9.46096 15.0528 8.44811 14.7993 7.578 14.2648C6.01078 13.2881 4.22649 10.6804 3.39609 9.01757C2.90076 8.19151 2.59471 7.26538 2.5 6.30612C2.54978 6.13035 2.54974 6.00646 2.72498 6.00646C2.90022 6.00646 5.10372 6.00646 5.31381 6.00646C5.45931 6.07917 5.58071 6.19262 5.66331 6.33306C5.73799 6.43293 6.30748 8.14269 6.48173 8.4433C6.65597 8.74391 7.51524 10.3908 7.98122 10.3908C8.13594 10.3603 8.27239 10.2698 8.3608 10.1388C8.44921 10.0078 8.48241 9.8471 8.45318 9.69168C8.45318 9.2922 8.45318 7.71525 8.45318 7.51451C8.26377 7.07168 7.91659 6.71559 7.47942 6.51581C7.58829 6.37076 7.72716 6.25107 7.88648 6.16488C8.04579 6.07869 8.22179 6.02803 8.40243 6.01645C8.99984 5.99149 10.4984 5.99153 10.8219 6.04047C10.9947 6.07421 11.1509 6.16563 11.2652 6.29984C11.3794 6.43405 11.445 6.60312 11.4513 6.7795Z" fill="#888888"/>
</svg>
