<svg width="20" height="21" viewBox="0 0 20 21" fill="none" xmlns="http://www.w3.org/2000/svg">
<path fill-rule="evenodd" clip-rule="evenodd" d="M7.38209 18.5C4.24946 17.3851 2 14.3253 2 10.7253C2 6.18257 5.58173 2.5 10 2.5C14.4183 2.5 18 6.18257 18 10.7253C18 14.3206 15.7564 17.3772 12.6301 18.4956L12.2798 15.6381C13.8911 14.7863 14.9932 13.0604 14.9932 11.0698C14.9932 8.72163 13.4595 6.74168 11.3657 6.13064V5.90766H12.3245V5.17766L10.0813 3.49801L7.7717 5.17766V5.98482H8.76008V6.09515C6.60098 6.66154 5.00448 8.67402 5.00448 11.0698C5.00448 13.0859 6.13511 14.8306 7.78019 15.6705L7.38209 18.5ZM12.1865 14.8769C13.4516 14.1072 14.2999 12.6903 14.2999 11.0698C14.2999 9.11941 13.0711 7.46386 11.3657 6.87677V8.76247H12.5838L11.5767 9.90203L12.1865 14.8769ZM7.88562 14.9212L8.5918 9.90203L7.52015 8.76247H8.76008V6.83497C6.98848 7.38174 5.69783 9.07094 5.69783 11.0698C5.69783 12.7219 6.57947 14.1624 7.88562 14.9212Z" fill="#888888"/>
</svg>
