<svg width="20" height="21" viewBox="0 0 20 21" fill="none" xmlns="http://www.w3.org/2000/svg">
<path fill-rule="evenodd" clip-rule="evenodd" d="M15.5 10.213L14.5 10C13.4391 10 12.4218 9.57858 11.6716 8.82843C10.9215 8.07828 10.5 7.06087 10.5 6L10.29 5L10.1 3H9.90002L9.70996 5L9.5 6C9.5 7.06087 9.07851 8.07828 8.32837 8.82843C7.57822 9.57858 6.56087 10 5.5 10L4.5 10.213L2.5 10.395V7C2.5 5.93913 2.92149 4.92172 3.67163 4.17157C4.42178 3.42142 5.43913 3 6.5 3H13.5C14.5609 3 15.5782 3.42142 16.3284 4.17157C17.0785 4.92172 17.5 5.93913 17.5 7V10.4L15.5 10.213ZM4.5 10.787L5.5 11C6.56087 11 7.57822 11.4214 8.32837 12.1716C9.07851 12.9217 9.5 13.9391 9.5 15L9.70996 16L9.90002 18H10.1L10.29 16L10.5 15C10.5 13.9391 10.9215 12.9217 11.6716 12.1716C12.4218 11.4214 13.4391 11 14.5 11L15.5 10.787L17.5 10.605V14C17.5 15.0609 17.0785 16.0783 16.3284 16.8284C15.5782 17.5786 14.5609 18 13.5 18H6.5C5.43913 18 4.42178 17.5786 3.67163 16.8284C2.92149 16.0783 2.5 15.0609 2.5 14V10.605L4.5 10.787Z" fill="#888888"/>
</svg>
