<svg width="20" height="21" viewBox="0 0 20 21" fill="none" xmlns="http://www.w3.org/2000/svg">
<path fill-rule="evenodd" clip-rule="evenodd" d="M6.5 3H13.5C14.5609 3 15.5783 3.42142 16.3284 4.17157C17.0786 4.92172 17.5 5.93913 17.5 7V14C17.5 15.0609 17.0786 16.0783 16.3284 16.8284C15.5783 17.5786 14.5609 18 13.5 18H6.5C5.43913 18 4.42172 17.5786 3.67157 16.8284C2.92142 16.0783 2.5 15.0609 2.5 14V7C2.5 5.93913 2.92142 4.92172 3.67157 4.17157C4.42172 3.42142 5.43913 3 6.5 3ZM6.5 5H13.5C14.0304 5 14.5391 5.21074 14.9142 5.58582C15.2893 5.96089 15.5 6.46957 15.5 7V14C15.5 14.5304 15.2893 15.0391 14.9142 15.4142C14.5391 15.7893 14.0304 16 13.5 16H6.5C5.96957 16 5.46089 15.7893 5.08582 15.4142C4.71074 15.0391 4.5 14.5304 4.5 14V7C4.5 6.46957 4.71074 5.96089 5.08582 5.58582C5.46089 5.21074 5.96957 5 6.5 5ZM10 7C10.6922 7 11.3689 7.20526 11.9445 7.58984C12.5201 7.97443 12.9687 8.52104 13.2336 9.16058C13.4985 9.80013 13.5678 10.5039 13.4327 11.1828C13.2977 11.8617 12.9643 12.4854 12.4748 12.9748C11.9854 13.4643 11.3617 13.7977 10.6828 13.9327C10.0039 14.0678 9.30013 13.9985 8.66058 13.7336C8.02104 13.4687 7.47443 13.0201 7.08984 12.4445C6.70526 11.8689 6.5 11.1922 6.5 10.5C6.5 9.57174 6.86877 8.68152 7.52515 8.02515C8.18152 7.36877 9.07174 7 10 7ZM10 9C10.2967 9 10.5867 9.08799 10.8334 9.25281C11.0801 9.41763 11.2723 9.65188 11.3858 9.92596C11.4993 10.2 11.5291 10.5017 11.4712 10.7927C11.4133 11.0836 11.2704 11.3509 11.0607 11.5607C10.8509 11.7704 10.5836 11.9133 10.2927 11.9712C10.0017 12.0291 9.70005 11.9993 9.42596 11.8858C9.15188 11.7723 8.91763 11.5801 8.75281 11.3334C8.58799 11.0867 8.5 10.7967 8.5 10.5C8.5 10.1022 8.65803 9.72064 8.93933 9.43933C9.22064 9.15803 9.60218 9 10 9Z" fill="#888888"/>
</svg>
