<svg width="1440" height="430" viewBox="0 0 1440 430" fill="none" xmlns="http://www.w3.org/2000/svg">
<path d="M340.25 -89.5C340.25 75.347 476.241 224.658 696.268 332.772C916.28 440.878 1220.24 507.75 1556 507.75C1891.76 507.75 2195.72 440.878 2415.73 332.772C2635.76 224.658 2771.75 75.347 2771.75 -89.5C2771.75 -254.347 2635.76 -403.658 2415.73 -511.772C2195.72 -619.878 1891.76 -686.75 1556 -686.75C1220.24 -686.75 916.28 -619.878 696.268 -511.772C476.241 -403.658 340.25 -254.347 340.25 -89.5Z" stroke="white"/>
<path d="M-64.75 -101C-64.75 63.709 71.24 212.895 291.27 320.918C511.28 428.934 815.241 495.75 1151 495.75C1486.76 495.75 1790.72 428.934 2010.73 320.918C2230.76 212.895 2366.75 63.709 2366.75 -101C2366.75 -265.709 2230.76 -414.895 2010.73 -522.918C1790.72 -630.934 1486.76 -697.75 1151 -697.75C815.241 -697.75 511.28 -630.934 291.27 -522.918C71.24 -414.895 -64.75 -265.709 -64.75 -101Z" stroke="white"/>
<path d="M78.25 180C78.25 344.709 214.24 493.895 434.27 601.918C654.28 709.934 958.241 776.75 1294 776.75C1629.76 776.75 1933.72 709.934 2153.73 601.918C2373.76 493.895 2509.75 344.709 2509.75 180C2509.75 15.291 2373.76 -133.895 2153.73 -241.918C1933.72 -349.934 1629.76 -416.75 1294 -416.75C958.241 -416.75 654.28 -349.934 434.27 -241.918C214.24 -133.895 78.25 15.291 78.25 180Z" stroke="white"/>
<path d="M633.25 -87C633.25 33.802 732.976 143.238 894.371 222.488C1055.75 301.731 1278.71 350.75 1525 350.75C1771.29 350.75 1994.25 301.731 2155.63 222.488C2317.02 143.238 2416.75 33.802 2416.75 -87C2416.75 -207.802 2317.02 -317.238 2155.63 -396.488C1994.25 -475.731 1771.29 -524.75 1525 -524.75C1278.71 -524.75 1055.75 -475.731 894.371 -396.488C732.976 -317.238 633.25 -207.802 633.25 -87Z" stroke="white"/>
<path d="M952.25 78.5C952.25 168.789 1026.62 250.6 1147.03 309.853C1267.42 369.099 1433.76 405.75 1617.5 405.75C1801.24 405.75 1967.58 369.099 2087.97 309.853C2208.38 250.6 2282.75 168.789 2282.75 78.5C2282.75 -11.789 2208.38 -93.6 2087.97 -152.853C1967.58 -212.099 1801.24 -248.75 1617.5 -248.75C1433.76 -248.75 1267.42 -212.099 1147.03 -152.853C1026.62 -93.6 952.25 -11.789 952.25 78.5Z" stroke="white"/>
</svg>
