<svg width="18" height="18" viewBox="0 0 18 18" fill="none" xmlns="http://www.w3.org/2000/svg">
<path fill-rule="evenodd" clip-rule="evenodd" d="M7.99805 0.00244141C3.57977 0.00244141 -0.00195312 3.58416 -0.00195312 8.00244C-0.00195312 12.4207 3.57977 16.0024 7.99805 16.0024C9.8468 16.0024 11.549 15.3754 12.9037 14.3223L16.2909 17.7095C16.6815 18.1001 17.3146 18.1001 17.7052 17.7095C18.0957 17.319 18.0957 16.6859 17.7052 16.2953L14.3179 12.9081C15.371 11.5534 15.998 9.85115 15.998 8.00244C15.998 3.58416 12.4163 0.00244141 7.99805 0.00244141ZM1.99805 8.00244C1.99805 4.68873 4.68434 2.00244 7.99805 2.00244C11.3118 2.00244 13.998 4.68873 13.998 8.00244C13.998 11.3161 11.3118 14.0024 7.99805 14.0024C4.68434 14.0024 1.99805 11.3161 1.99805 8.00244Z" fill="#888888"/>
</svg>
